<svg height="512" viewBox="0 0 64 64" width="512" xmlns="http://www.w3.org/2000/svg"><g id="Layer_12" data-name="Layer 12"><circle cx="30" cy="30" fill="#686868" r="28"/><circle cx="30" cy="30" fill="#939393" r="24"/><circle cx="49" cy="49" fill="#bce4f8" r="13"/><path d="m49 36a12.987 12.987 0 0 0 -10.233 21h14.233a5 5 0 0 0 5-5v-12.367a12.943 12.943 0 0 0 -9-3.633z" fill="#e4f5fd"/><rect fill="#fff" height="10" rx="3" width="16" x="40" y="42"/><circle cx="30" cy="30" fill="#686868" r="7"/><path d="m26.115 35.822-9.192 14.3a23.855 23.855 0 0 0 6.088 2.843l5.074-16.235a6.956 6.956 0 0 1 -1.97-.908z" fill="#ccc"/><path d="m26.115 35.822a7.011 7.011 0 0 1 -2.822-3.822l-15.963 5.879a24.055 24.055 0 0 0 9.6 12.236z" fill="#fff"/><path d="m43.776 10.353-9.867 13.84a7.006 7.006 0 0 1 2.819 3.892l16.235-5.074a24.042 24.042 0 0 0 -9.187-12.658z" fill="#fff"/><path d="m33.877 24.173 9.88-13.833a23.893 23.893 0 0 0 -5.88-3.011l-5.977 15.939a6.965 6.965 0 0 1 1.977.905z" fill="#ccc"/><circle cx="30" cy="30" fill="#fff" r="3"/><path d="m34 30a4 4 0 1 0 -4 4 4 4 0 0 0 4-4zm-6 0a2 2 0 1 1 2 2 2 2 0 0 1 -2-2z"/><path d="m54.525 39.149a1 1 0 0 0 -.972-.044l-8 4a1 1 0 0 0 -.553.895v7.184a2.966 2.966 0 0 0 -1-.184 3 3 0 1 0 3 3v-4.382l6-3v2.566a2.966 2.966 0 0 0 -1-.184 3 3 0 1 0 3 3v-12a1 1 0 0 0 -.475-.851zm-10.525 15.851a1 1 0 1 1 1-1 1 1 0 0 1 -1 1zm3-7.618v-2.764l6-3v2.764zm5 5.618a1 1 0 1 1 1-1 1 1 0 0 1 -1 1z"/><path d="m57.822 38.142a29.046 29.046 0 1 0 -19.68 19.68 13.991 13.991 0 1 0 19.68-19.68zm-27.822 18.858a27.052 27.052 0 1 1 26.08-20.057 13.857 13.857 0 0 0 -1.829-.912 25.049 25.049 0 1 0 -18.22 18.22 13.857 13.857 0 0 0 .912 1.829 27.024 27.024 0 0 1 -6.943.92zm5.421-4.655a22.925 22.925 0 0 1 -11.149-.067l4.5-14.383a7.944 7.944 0 0 0 9.128-9.127l14.383-4.5a22.9 22.9 0 0 1 .066 11.148 13.945 13.945 0 0 0 -16.928 16.929zm-28.421-22.345a22.99 22.99 0 0 1 29.571-22.038l-5.3 14.148a7.947 7.947 0 0 0 -9.156 9.156l-14.153 5.306a22.908 22.908 0 0 1 -.962-6.572zm28.246-6.025 8.731-12.223a23.093 23.093 0 0 1 7.713 10.608l-14.342 4.483a8.018 8.018 0 0 0 -2.102-2.868zm-11.246 6.025a6 6 0 1 1 6 6 6.006 6.006 0 0 1 -6-6zm9.586-7.141c-.13-.066-.26-.131-.394-.19l5.269-14.05a22.969 22.969 0 0 1 3.878 1.986zm-10.917 10.334a8.036 8.036 0 0 0 2.111 2.856l-8.137 12.657a23.109 23.109 0 0 1 -8.023-10.244zm3.776 3.963c.132.066.263.134.4.193l-4.484 14.342a22.91 22.91 0 0 1 -4.044-1.891zm22.555 23.844a12 12 0 1 1 12-12 12.013 12.013 0 0 1 -12 12z"/></g></svg>